<svg xmlns="http://www.w3.org/2000/svg" width="130" height="26" fill="none" viewBox="0 0 130 26"><path fill="#fff" d="M112.982.365h3.612l4.174 17.298L124.927.365h3.19l-5.818 25.288h-3.077L112.982.365Zm-1.461 0h3.443l.534 16.673v8.615h-3.977V.365Zm15.022 0H130v25.288h-3.963v-8.615l.506-16.673Zm-27.613 0 3.12 11.393L105.141.365h4.483l-5.509 16.1v9.188H99.97v-9.188L94.46.365h4.469Zm-4.994 12.001v10.42c-.29.383-.716.829-1.278 1.338-.553.498-1.279.938-2.178 1.32-.89.37-1.977.556-3.26.556-1.134 0-2.165-.22-3.092-.66-.918-.44-1.71-1.106-2.375-1.997-.656-.904-1.157-2.027-1.504-3.37-.346-1.354-.52-2.958-.52-4.81v-4.308c0-1.83.164-3.421.492-4.776.337-1.366.825-2.501 1.462-3.404S83.079 1.1 83.959.66C84.85.22 85.852 0 86.966 0c1.537 0 2.797.318 3.78.955.994.637 1.743 1.58 2.249 2.831.515 1.25.824 2.785.927 4.603h-3.976c-.066-1.065-.211-1.9-.436-2.501-.216-.602-.52-1.03-.913-1.285-.394-.267-.904-.4-1.532-.4-.543 0-1.017.122-1.42.365-.402.231-.74.613-1.011 1.146-.272.533-.473 1.216-.605 2.05-.13.833-.196 1.852-.196 3.056v4.342c0 1.193.075 2.212.225 3.057.15.845.37 1.534.66 2.067.3.532.675.92 1.124 1.163.46.232.998.348 1.616.348.497 0 .895-.064 1.195-.191.3-.128.538-.26.716-.4a6.78 6.78 0 0 1 .464-.347v-4.655h-2.937v-3.838h7.04ZM63.11.365h6.562c1.368 0 2.535.29 3.5.868.964.58 1.704 1.436 2.22 2.57.515 1.135.773 2.536.773 4.204 0 1.366-.15 2.535-.45 3.508-.3.961-.726 1.766-1.279 2.414a6.325 6.325 0 0 1-1.981 1.529l-1.25.92h-5.327l-.014-4.22h3.696c.562 0 1.026-.15 1.391-.452.375-.313.651-.747.83-1.303.187-.567.28-1.227.28-1.98 0-.798-.084-1.482-.253-2.049-.159-.579-.417-1.019-.773-1.32-.346-.313-.8-.469-1.363-.469h-2.445v21.068H63.11V.365Zm9.289 25.288L68.647 14.38l4.314-.018 3.836 11.047v.243h-4.398ZM59.685 21.45v4.203H50.79V21.45h8.895ZM52.07.364v25.288h-4.117V.365h4.117Zm6.422 10.247v4.081h-7.7v-4.081h7.7ZM59.657.365v4.22H50.79V.365h8.867ZM39.572 16.743h-4.188v-4.22h4.188c.58 0 1.054-.163 1.42-.487.374-.324.646-.77.814-1.337a6.95 6.95 0 0 0 .253-1.946c0-.729-.089-1.406-.267-2.032-.169-.636-.436-1.152-.8-1.545-.357-.394-.83-.59-1.42-.59h-2.867v21.067h-4.103V.365h6.97c1.377 0 2.562.359 3.555 1.077.993.717 1.752 1.707 2.277 2.97.534 1.25.8 2.686.8 4.307 0 1.632-.266 3.05-.8 4.255-.525 1.192-1.284 2.119-2.277 2.779-.993.66-2.178.99-3.555.99ZM25.35.365h4.104v17.368c0 1.945-.29 3.531-.871 4.759-.572 1.215-1.363 2.107-2.375 2.674-1.012.556-2.169.834-3.471.834-1.312 0-2.478-.278-3.5-.834-1.02-.567-1.816-1.459-2.388-2.674-.562-1.228-.843-2.814-.843-4.76V.366h4.103v17.368c0 1.1.099 1.945.295 2.535.206.591.502.996.886 1.216.393.209.876.313 1.447.313.58 0 1.059-.104 1.433-.313.384-.22.675-.625.872-1.216.206-.59.309-1.435.309-2.535V.365ZM9.275 19c0-.45-.033-.862-.099-1.233a2.578 2.578 0 0 0-.421-1.024c-.206-.313-.51-.625-.914-.938-.393-.313-.908-.637-1.545-.973a33.79 33.79 0 0 1-2.207-1.25 10.47 10.47 0 0 1-1.925-1.563A6.723 6.723 0 0 1 .801 9.935C.473 9.124.309 8.175.309 7.086c0-1.065.155-2.032.464-2.9.318-.869.768-1.61 1.349-2.223A6 6 0 0 1 4.16.52C4.946.185 5.822.017 6.787.017c1.312 0 2.446.336 3.401 1.008.965.671 1.71 1.592 2.234 2.761.534 1.17.801 2.513.801 4.03H9.12c0-.718-.084-1.35-.253-1.893-.16-.556-.417-.99-.773-1.303-.356-.313-.815-.469-1.377-.469-.525 0-.96.133-1.307.4-.337.254-.59.607-.759 1.059-.159.44-.239.938-.239 1.494 0 .416.08.793.24 1.128.168.325.398.62.688.886.29.255.632.504 1.026.747.403.243.843.48 1.32.712.928.452 1.748.95 2.46 1.494a8.179 8.179 0 0 1 1.785 1.806c.477.66.838 1.407 1.082 2.24.243.834.365 1.784.365 2.849 0 1.054-.15 2.015-.45 2.883a6.31 6.31 0 0 1-1.279 2.223 5.76 5.76 0 0 1-2.037 1.424c-.787.336-1.668.504-2.642.504-.946 0-1.84-.162-2.684-.486a6.318 6.318 0 0 1-2.234-1.511C1.415 23.32.913 22.457.548 21.415.183 20.36 0 19.116 0 17.68h4.117c0 .764.061 1.418.183 1.962.122.533.31.961.562 1.285.253.313.562.55.928.713.374.15.8.225 1.278.225.544 0 .975-.127 1.293-.382.328-.254.562-.596.703-1.024.14-.429.21-.915.21-1.46Z"/></svg>