<svg xmlns="http://www.w3.org/2000/svg" width="100" height="20" fill="none" viewBox="0 0 100 20"><path fill="#fff" d="M86.91.28h2.778l3.21 13.307 3.2-13.306h2.454l-4.476 19.452H91.71L86.91.28Zm-1.125 0h2.649l.41 12.826v6.627h-3.059V.28Zm11.556 0H100v19.453h-3.048v-6.627L97.34.281ZM76.1.28l2.4 8.765L80.878.28h3.448L80.09 12.665v7.068H76.9v-7.068L72.663.281H76.1Zm-3.841 9.232v8.016c-.224.294-.551.637-.984 1.03-.425.382-.984.72-1.675 1.015-.685.285-1.52.427-2.508.427-.872 0-1.665-.17-2.378-.508-.707-.338-1.315-.85-1.827-1.536-.505-.695-.89-1.559-1.157-2.592-.266-1.042-.4-2.276-.4-3.7V8.35c0-1.407.127-2.632.379-3.674.26-1.051.634-1.924 1.124-2.619.49-.694 1.074-1.21 1.751-1.55C65.269.17 66.04 0 66.897 0c1.182 0 2.151.245 2.908.735.764.49 1.34 1.216 1.73 2.177.396.962.634 2.143.713 3.54h-3.06c-.05-.819-.161-1.46-.334-1.923-.166-.463-.4-.793-.703-.989-.302-.204-.695-.307-1.178-.307-.418 0-.782.094-1.092.28-.31.179-.57.473-.778.882-.21.41-.364.936-.465 1.577-.1.641-.151 1.425-.151 2.351v3.34c0 .918.057 1.701.173 2.352.115.65.284 1.18.508 1.59.23.41.519.708.864.895.354.178.768.267 1.244.267.382 0 .688-.05.919-.147.23-.098.414-.2.55-.307.145-.116.264-.205.358-.268v-3.58h-2.26V9.512h5.416ZM48.546.28h5.048c1.052 0 1.95.223 2.692.669.742.445 1.311 1.104 1.708 1.977.396.873.594 1.95.594 3.233 0 1.051-.115 1.95-.346 2.699-.23.739-.558 1.358-.983 1.857a4.86 4.86 0 0 1-1.525 1.175l-.962.708h-4.096l-.011-3.246h2.843c.432 0 .789-.116 1.07-.347.288-.24.5-.575.638-1.002.144-.437.216-.944.216-1.523 0-.615-.065-1.14-.195-1.577-.122-.445-.32-.784-.594-1.015-.267-.24-.617-.361-1.049-.361h-1.88v16.206h-3.168V.28Zm7.145 19.453-2.886-8.67 3.319-.014 2.95 8.497v.187h-3.383ZM45.912 16.5v3.233h-6.843V16.5h6.843ZM40.053.28v19.453h-3.167V.28h3.167Zm4.94 7.883v3.14H39.07v-3.14h5.924ZM45.89.281v3.246h-6.82V.281h6.82ZM30.44 12.88h-3.221V9.632h3.22c.448 0 .812-.125 1.093-.374.288-.25.497-.593.627-1.03.13-.445.194-.943.194-1.496a5.69 5.69 0 0 0-.205-1.563c-.13-.49-.335-.886-.616-1.189-.274-.303-.638-.454-1.092-.454h-2.205v16.206h-3.157V.28h5.362c1.06 0 1.97.276 2.735.828.764.552 1.347 1.314 1.75 2.284.412.962.617 2.067.617 3.314 0 1.256-.205 2.347-.616 3.273-.404.917-.987 1.63-1.751 2.138-.764.507-1.676.761-2.735.761ZM19.5.28h3.157v13.36c0 1.497-.223 2.717-.67 3.661-.44.935-1.049 1.621-1.827 2.058-.778.427-1.668.641-2.67.641-1.009 0-1.906-.214-2.692-.641-.785-.437-1.398-1.123-1.837-2.058-.433-.944-.649-2.164-.649-3.66V.28h3.157v13.36c0 .846.075 1.496.227 1.95.158.454.385.766.68.935.303.16.674.24 1.114.24.447 0 .814-.08 1.103-.24.295-.169.518-.48.67-.935.158-.454.238-1.104.238-1.95V.28ZM7.134 14.616a5.51 5.51 0 0 0-.075-.949 1.983 1.983 0 0 0-.325-.788 3.117 3.117 0 0 0-.702-.721 7.72 7.72 0 0 0-1.19-.748 26.036 26.036 0 0 1-1.696-.962 8.057 8.057 0 0 1-1.481-1.203A5.172 5.172 0 0 1 .616 7.642C.364 7.018.238 6.288.238 5.451c0-.82.119-1.563.357-2.231a4.914 4.914 0 0 1 1.037-1.71C2.08 1.029 2.602.66 3.2.4A5.137 5.137 0 0 1 5.22.014c1.009 0 1.88.259 2.616.775.742.517 1.315 1.225 1.719 2.125.41.9.616 1.932.616 3.099H7.015c0-.552-.064-1.038-.194-1.456-.123-.428-.32-.762-.595-1.002-.273-.24-.627-.36-1.059-.36-.404 0-.739.102-1.005.306-.26.196-.454.468-.584.815a3.36 3.36 0 0 0-.184 1.15c0 .32.061.61.184.868.13.25.306.476.53.681.223.196.486.387.789.575.31.187.648.37 1.016.547.713.348 1.344.73 1.892 1.15a6.266 6.266 0 0 1 1.372 1.389 5.58 5.58 0 0 1 .833 1.723c.187.641.28 1.372.28 2.191 0 .81-.114 1.55-.345 2.218a4.854 4.854 0 0 1-.984 1.71 4.43 4.43 0 0 1-1.567 1.096C6.788 19.87 6.11 20 5.362 20a5.702 5.702 0 0 1-2.065-.374 4.86 4.86 0 0 1-1.719-1.162c-.49-.526-.875-1.19-1.156-1.991C.14 15.663 0 14.705 0 13.6h3.167c0 .587.047 1.09.14 1.51.094.409.239.739.433.988.195.24.433.423.714.548.288.115.616.173.983.173.418 0 .75-.098.995-.294a1.6 1.6 0 0 0 .54-.788 3.6 3.6 0 0 0 .162-1.122Z"/></svg>