<svg xmlns="http://www.w3.org/2000/svg" width="110" height="22" fill="none" viewBox="0 0 110 22"><path fill="#fff" d="M95.6.309h3.056l3.532 14.637 3.52-14.637h2.699l-4.923 21.397h-2.604L95.6.31Zm-1.236 0h2.913l.452 14.108v7.29h-3.365V.308Zm12.711 0H110v21.397h-3.353v-7.29L107.075.31Zm-23.365 0 2.64 9.64L88.966.31h3.793l-4.662 13.623v7.774H84.59v-7.774L79.929.309h3.78Zm-4.225 10.155v8.817c-.246.324-.607.7-1.082 1.132-.468.421-1.082.793-1.843 1.117-.753.313-1.673.47-2.759.47-.96 0-1.831-.186-2.616-.558-.777-.373-1.447-.936-2.01-1.69-.554-.765-.978-1.715-1.272-2.851-.293-1.147-.44-2.504-.44-4.071V9.185c0-1.548.14-2.895.416-4.041.286-1.156.698-2.117 1.237-2.88.54-.765 1.181-1.333 1.926-1.706C71.796.186 72.644 0 73.587 0c1.3 0 2.366.27 3.199.808.84.54 1.474 1.338 1.902 2.396.436 1.058.698 2.356.785 3.894h-3.365c-.056-.901-.178-1.607-.369-2.116-.182-.51-.44-.872-.773-1.088-.333-.225-.765-.338-1.296-.338-.46 0-.86.103-1.2.31-.341.195-.627.518-.857.969-.23.45-.4 1.029-.511 1.734-.111.706-.167 1.568-.167 2.587v3.674c0 1.009.064 1.87.19 2.586.127.715.314 1.298.56 1.749.253.45.57.779.95.985.39.196.845.294 1.368.294.42 0 .757-.054 1.01-.162.255-.108.457-.22.607-.338.159-.127.29-.226.393-.294v-3.939h-2.485v-3.247h5.957ZM53.4.309h5.554c1.157 0 2.144.245 2.96.734.817.49 1.443 1.215 1.879 2.175.436.96.654 2.146.654 3.557 0 1.156-.127 2.145-.38 2.968-.254.814-.615 1.495-1.082 2.043a5.351 5.351 0 0 1-1.677 1.293l-1.058.78h-4.507l-.012-3.572h3.127c.476 0 .869-.127 1.178-.382.317-.264.55-.632.701-1.102.159-.48.238-1.039.238-1.675 0-.676-.071-1.254-.214-1.735-.135-.49-.353-.862-.654-1.116-.293-.265-.678-.397-1.153-.397h-2.07v17.826h-3.483V.31Zm7.86 21.397-3.174-9.538 3.65-.014 3.246 9.346v.206H61.26ZM50.503 18.15v3.556h-7.527V18.15h7.527ZM44.058.309v21.397h-3.483V.31h3.483Zm5.434 8.67v3.454h-6.516V8.979h6.516ZM50.48.31v3.57h-7.503V.31h7.503ZM33.484 14.167H29.94v-3.571h3.544c.491 0 .892-.137 1.2-.412.318-.274.548-.651.69-1.131a5.88 5.88 0 0 0 .215-1.646 6.26 6.26 0 0 0-.226-1.72c-.143-.538-.369-.974-.678-1.308-.301-.333-.702-.5-1.201-.5h-2.426v17.827h-3.472V.31h5.898c1.165 0 2.168.303 3.008.91.84.608 1.483 1.446 1.927 2.514.451 1.058.677 2.273.677 3.644 0 1.382-.226 2.582-.677 3.6-.444 1.01-1.086 1.794-1.927 2.352-.84.559-1.843.838-3.008.838ZM21.45.309h3.473v14.696c0 1.646-.246 2.988-.737 4.026-.484 1.03-1.154 1.784-2.01 2.264-.856.47-1.835.705-2.937.705-1.11 0-2.097-.235-2.96-.705-.865-.48-1.539-1.235-2.022-2.264-.476-1.038-.714-2.38-.714-4.026V.309h3.473v14.696c0 .93.083 1.646.25 2.145.174.5.423.843.748 1.029.333.176.742.265 1.225.265.491 0 .896-.089 1.213-.265.325-.186.57-.53.737-1.029.174-.5.262-1.215.262-2.145V.309ZM7.848 16.078c0-.383-.028-.73-.083-1.044a2.181 2.181 0 0 0-.357-.867c-.175-.264-.432-.529-.773-.794a8.5 8.5 0 0 0-1.308-.823 28.621 28.621 0 0 1-1.867-1.058 8.863 8.863 0 0 1-1.629-1.322A5.69 5.69 0 0 1 .678 8.406C.4 7.72.262 6.917.262 5.996c0-.901.13-1.72.392-2.454.27-.735.65-1.362 1.141-1.881A5.077 5.077 0 0 1 3.52.44C4.185.157 4.927.015 5.743.015c1.11 0 2.07.284 2.878.852.816.568 1.446 1.347 1.89 2.337.452.99.678 2.126.678 3.41H7.717c0-.608-.071-1.142-.214-1.603-.135-.47-.353-.837-.654-1.102-.301-.264-.69-.397-1.165-.397-.444 0-.813.113-1.106.338a1.94 1.94 0 0 0-.642.897 3.697 3.697 0 0 0-.202 1.264c0 .352.067.67.202.955.142.274.337.524.582.75.246.215.535.426.868.631.341.206.714.407 1.118.603.785.382 1.479.803 2.081 1.264a6.92 6.92 0 0 1 1.51 1.528c.404.559.71 1.19.916 1.896.206.705.309 1.509.309 2.41 0 .892-.127 1.705-.38 2.44a5.34 5.34 0 0 1-1.083 1.88c-.475.52-1.05.922-1.724 1.206-.666.284-1.41.426-2.235.426a6.26 6.26 0 0 1-2.271-.412 5.346 5.346 0 0 1-1.891-1.278c-.539-.578-.963-1.308-1.272-2.19C.154 17.23 0 16.175 0 14.96h3.484c0 .647.051 1.2.155 1.661.103.45.261.813.475 1.088.214.264.476.465.785.602.317.128.678.191 1.082.191.46 0 .824-.107 1.094-.323.277-.215.476-.505.594-.867.12-.363.179-.774.179-1.235Z"/></svg>